# xmcd CD database file
#
# Track frame offsets:
#	150
#	15399
#	29696
#	42780
#	54706
#	70169
#	91739
#	104282
#	118555
#	136758
#	150322
#
# Disc length: 2211 seconds
#
# Revision: 0
# Processed by: cddbd v1.5.2PL0 Copyright (c) Steve Scherf et al.
# Submitted via: CDex 1.51
#
DISCID=8008a10b
DTITLE=Jason Donovan - Sign Of Your Love
DYEAR=2012
DGENRE=Jazz
TTITLE0=I Won't Dance
TTITLE1=Make Love
TTITLE2=Every Time We Say Goodbye
TTITLE3=Bewitched
TTITLE4=Sign Of Your Love
TTITLE5=What A Difference A Day Made
TTITLE6=Zing! Went The Strings Of My Heart
TTITLE7=I Only Have Eyes For You
TTITLE8=Creative
TTITLE9=They Can't Take That Away From Me
TTITLE10=With You
EXTD=YEAR: 2012
EXTT0=
EXTT1=
EXTT2=
EXTT3=
EXTT4=
EXTT5=
EXTT6=
EXTT7=
EXTT8=
EXTT9=
EXTT10=
PLAYORDER=
